<mxfile host="app.diagrams.net" modified="2022-05-25T12:07:11.645Z" agent="5.0 (X11)" etag="9i4pEdvIZEl5-f9xsC5T" version="18.1.2" type="github">
  <diagram id="_OExlvrTixO2O2gBcwN0" name="Page-1">
    <mxGraphModel dx="1418" dy="714" grid="1" gridSize="10" guides="1" tooltips="1" connect="1" arrows="1" fold="1" page="1" pageScale="1" pageWidth="850" pageHeight="1100" math="0" shadow="0">
      <root>
        <mxCell id="0" />
        <mxCell id="1" parent="0" />
        <mxCell id="71g4kVDAsBMrEuFIKQHk-12" style="edgeStyle=orthogonalEdgeStyle;rounded=0;orthogonalLoop=1;jettySize=auto;html=1;exitX=1;exitY=0.5;exitDx=0;exitDy=0;entryX=-0.006;entryY=0.633;entryDx=0;entryDy=0;entryPerimeter=0;" edge="1" parent="1" source="71g4kVDAsBMrEuFIKQHk-2" target="71g4kVDAsBMrEuFIKQHk-3">
          <mxGeometry relative="1" as="geometry" />
        </mxCell>
        <mxCell id="71g4kVDAsBMrEuFIKQHk-2" value="&lt;div&gt;Sound Record&lt;/div&gt;" style="rounded=0;whiteSpace=wrap;html=1;fillColor=#f8cecc;strokeColor=#b85450;" vertex="1" parent="1">
          <mxGeometry x="40" y="230" width="120" height="60" as="geometry" />
        </mxCell>
        <mxCell id="71g4kVDAsBMrEuFIKQHk-13" style="edgeStyle=orthogonalEdgeStyle;rounded=0;orthogonalLoop=1;jettySize=auto;html=1;exitX=1;exitY=0.5;exitDx=0;exitDy=0;" edge="1" parent="1" source="71g4kVDAsBMrEuFIKQHk-3" target="71g4kVDAsBMrEuFIKQHk-4">
          <mxGeometry relative="1" as="geometry" />
        </mxCell>
        <mxCell id="71g4kVDAsBMrEuFIKQHk-3" value="&lt;div&gt;Store and Preprocessing&lt;br&gt;&lt;/div&gt;" style="rounded=0;whiteSpace=wrap;html=1;fillColor=#dae8fc;strokeColor=#6c8ebf;" vertex="1" parent="1">
          <mxGeometry x="320" y="180" width="155" height="60" as="geometry" />
        </mxCell>
        <mxCell id="71g4kVDAsBMrEuFIKQHk-14" style="edgeStyle=orthogonalEdgeStyle;rounded=0;orthogonalLoop=1;jettySize=auto;html=1;exitX=1;exitY=0.25;exitDx=0;exitDy=0;entryX=0;entryY=0.5;entryDx=0;entryDy=0;" edge="1" parent="1" source="71g4kVDAsBMrEuFIKQHk-4" target="71g4kVDAsBMrEuFIKQHk-5">
          <mxGeometry relative="1" as="geometry">
            <Array as="points">
              <mxPoint x="675" y="220" />
              <mxPoint x="695" y="220" />
              <mxPoint x="695" y="410" />
              <mxPoint x="20" y="410" />
              <mxPoint x="20" y="350" />
            </Array>
          </mxGeometry>
        </mxCell>
        <mxCell id="71g4kVDAsBMrEuFIKQHk-17" style="edgeStyle=orthogonalEdgeStyle;rounded=0;orthogonalLoop=1;jettySize=auto;html=1;exitX=1;exitY=0.25;exitDx=0;exitDy=0;" edge="1" parent="1" source="71g4kVDAsBMrEuFIKQHk-4" target="71g4kVDAsBMrEuFIKQHk-6">
          <mxGeometry relative="1" as="geometry" />
        </mxCell>
        <mxCell id="71g4kVDAsBMrEuFIKQHk-4" value="&lt;div&gt;Cry Recognizing&lt;br&gt;&lt;/div&gt;" style="rounded=0;whiteSpace=wrap;html=1;fillColor=#dae8fc;strokeColor=#6c8ebf;" vertex="1" parent="1">
          <mxGeometry x="520" y="180" width="155" height="60" as="geometry" />
        </mxCell>
        <mxCell id="71g4kVDAsBMrEuFIKQHk-5" value="Play Musik" style="rounded=0;whiteSpace=wrap;html=1;fillColor=#d5e8d4;strokeColor=#82b366;" vertex="1" parent="1">
          <mxGeometry x="40" y="320" width="120" height="60" as="geometry" />
        </mxCell>
        <mxCell id="71g4kVDAsBMrEuFIKQHk-6" value="Notification" style="rounded=0;whiteSpace=wrap;html=1;fillColor=#d5e8d4;strokeColor=#82b366;" vertex="1" parent="1">
          <mxGeometry x="800" y="180" width="120" height="60" as="geometry" />
        </mxCell>
        <mxCell id="71g4kVDAsBMrEuFIKQHk-11" style="edgeStyle=orthogonalEdgeStyle;rounded=0;orthogonalLoop=1;jettySize=auto;html=1;exitX=1;exitY=0.5;exitDx=0;exitDy=0;entryX=0;entryY=0.25;entryDx=0;entryDy=0;" edge="1" parent="1" source="71g4kVDAsBMrEuFIKQHk-7" target="71g4kVDAsBMrEuFIKQHk-3">
          <mxGeometry relative="1" as="geometry" />
        </mxCell>
        <mxCell id="71g4kVDAsBMrEuFIKQHk-7" value="Video Record" style="rounded=0;whiteSpace=wrap;html=1;fillColor=#f8cecc;strokeColor=#b85450;" vertex="1" parent="1">
          <mxGeometry x="40" y="130" width="120" height="60" as="geometry" />
        </mxCell>
      </root>
    </mxGraphModel>
  </diagram>
</mxfile>
